<svg width="206" height="54" viewBox="0 0 206 54" xmlns="http://www.w3.org/2000/svg"><title>masharee3-logo-2018-new ar</title><g fill="none"><path d="M196.117 54h-34.136c-5.49 0-9.981-4.483-9.981-9.963V9.963C152 4.483 156.492 0 161.981 0h34.036c5.49 0 9.981 4.483 9.981 9.963v33.974c.1 5.58-4.391 10.063-9.881 10.063z" fill="#FFCA00"/><path d="M197 24.316c0 11.678-6.047 18.825-15.366 18.825-4.065 0-7.535-1.41-10.31-3.725-1.785 6.443-5.949 12.282-13.682 12.584-3.172 0-6.642-.302-6.642-4.53v-2.517l5.155-.1c8.526-.202 9.716-5.437 9.716-12.483 0-2.215-.298-4.631-.298-6.947 0-9.362 5.056-17.919 15.961-18.422 9.121-.1 15.466 6.846 15.466 17.315zm-6.84 1.309c0-7.651-3.272-11.678-9.22-11.678-5.056 0-8.328 4.027-8.328 10.57 0 7.148 3.47 11.779 9.616 11.779 5.056.1 7.931-4.43 7.931-10.671z" fill="#333545"/><g fill="#FFF"><path d="M18 49.1c-2.3 1.5-4.9 2.2-7.7 2.2-3.1 0-5.7-1-7.6-3C.9 46.5 0 44.2 0 41.4c0-1.9.5-3.6 1.5-5.1 1-1.5 2.6-2.8 4.9-4.1-1.5-.9-3.4-2.7-5.6-5.4-.3-.3-.5-.6-.7-.8v-2.3c1.2-1.8 2.7-3.2 4.6-4.3 1.9-1.1 3.7-1.6 5.7-1.6 1.9 0 3.8.5 5.7 1.6 1.9 1.1 3.4 2.5 4.6 4.3V26c-1.7 2-3.7 3.7-6.1 5.2.9.1 1.7.2 2.5.2h8.7v4.8H14.2c-1.5 0-2.8-.3-4-1-1.9.9-3.3 1.8-4.1 2.8-.8 1-1.2 2.1-1.2 3.4 0 1.5.5 2.7 1.6 3.6 1.1.9 2.5 1.4 4.3 1.4 2.6 0 5.1-.7 7.4-2.2v4.9H18zm-7.7-19.5c2-1.6 3.5-3.2 4.4-4.8-1.6-1.5-3.1-2.2-4.5-2.2s-2.8.7-4.3 2.2c1.1 1.8 2.6 3.4 4.4 4.8z"/><path d="M25.5 45.2c-.8 0-1.4-.2-1.9-.7-.5-.5-.7-1.1-.7-2 0-1.7.9-2.6 2.6-2.6.8 0 1.4.2 1.9.7.5.5.7 1.1.7 1.9 0 1.8-.9 2.7-2.6 2.7zm-2.2-8.9v-4.8h3.6c1 0 1.7-.2 2.2-.7.4-.4.6-1.2.6-2.2v-7.4l5-2.6v10.3c0 2.4-.7 4.3-2.2 5.7-1.3 1.2-3 1.8-5.1 1.8h-4.1v-.1zm8.3 8.9c-.8 0-1.4-.2-1.9-.7-.5-.5-.7-1.1-.7-2 0-1.7.9-2.6 2.6-2.6.8 0 1.4.2 1.9.7.5.5.7 1.1.7 1.9 0 1.8-.8 2.7-2.6 2.7zm20.2-11.4c0 3.1-.9 5.6-2.6 7.5-1.6 1.8-3.7 2.7-6.2 2.7-1.7 0-3.3-.4-4.9-1.3v-4.4c1.4.8 2.7 1.2 4.1 1.2 1.5 0 2.6-.5 3.4-1.4.8-.9 1.2-2.3 1.2-3.9v-13l5-2.7v15.3zm14.5 2.5c-2.4 0-4.3-.8-5.6-2.3-1.1-1.3-1.7-3.1-1.7-5.2V13.2l5-2.6v18.1c0 1 .2 1.8.6 2.2.4.4 1.1.7 2.2.7h3.6v4.8h-4.1v-.1z"/><path d="M68 36.3v-4.8h7v4.8z"/><path d="M72.6 36.3v-4.8h4.2c1 0 1.7-.2 2.2-.7.4-.4.7-1.2.7-2.2v-5.3l5-2.6v7.9c0 1 .2 1.8.6 2.2.4.4 1.1.7 2.2.7h2.7c1 0 1.7-.2 2.2-.7.5-.5.6-1.2.6-2.2v-6.3l5-2.7v9c0 1 .2 1.8.7 2.2.4.4 1.2.7 2.2.7h2.7c1 0 1.7-.2 2.2-.7.4-.4.6-1.2.6-2.2v-7.4l5-2.6V28c0 1.3.3 2.2.8 2.7s1.4.8 2.6.8h3.7v4.8h-4c-2.2 0-4-.6-5.4-1.9-1.2 1.3-2.8 1.9-4.8 1.9h-4c-2 0-3.6-.6-4.8-1.8-1.1 1.1-2.7 1.7-4.6 1.8h-4c-2 0-3.6-.6-4.8-1.8-1.3 1.2-2.9 1.8-4.8 1.8h-4.7zM92.3 15c-.8 0-1.4-.2-1.9-.7-.5-.5-.7-1.1-.7-2 0-.8.2-1.4.7-1.9.5-.5 1.1-.7 1.9-.7.8 0 1.4.2 1.9.7.5.5.7 1.1.7 1.9 0 1.8-.8 2.7-2.6 2.7zm3.1-5.8c-1.6 0-2.4-.8-2.4-2.4 0-1.6.8-2.4 2.4-2.4 1.6 0 2.4.8 2.4 2.4-.1 1.5-.9 2.4-2.4 2.4zm3.1 5.8c-.8 0-1.4-.2-1.9-.7-.5-.5-.7-1.1-.7-2 0-.8.2-1.4.7-1.9.5-.5 1.1-.7 1.9-.7.8 0 1.4.2 1.9.7.5.5.7 1.1.7 1.9 0 1.8-.9 2.7-2.6 2.7z"/><path d="M122.6 25.3c0-2.4.7-4.3 2.2-5.6 1.3-1.2 3-1.8 5-1.8 2.6 0 4.7 1 6.2 2.9 1.3 1.6 1.9 3.7 1.9 6.3 0 3-.8 5.3-2.4 7-1.4 1.5-3.2 2.2-5.4 2.2-2.1 0-3.9-.5-5.2-1.4-1.3.9-2.8 1.4-4.6 1.4h-4.1v-4.8h3.6c1 0 1.7-.2 2.2-.7.5-.5.6-1.2.6-2.2v-3.3zm5 3.9c0 1.5.8 2.2 2.4 2.2 2 0 3-1.5 3-4.6 0-2.9-1-4.4-3.1-4.4-1.5 0-2.2.9-2.2 2.6v4.2h-.1z"/></g></g></svg>