<svg id="Layer_1" xmlns="http://www.w3.org/2000/svg" viewBox="0 0 314 105"><style>.st0{fill:#333545}.st1{fill:#ffe100}.st2{fill:#333545;stroke:#333545;stroke-miterlimit:10}.st3{fill:#fff}</style><path class="st0" d="M126.1 89.8c-3.9-3.9-6.7-9-6.1-14-.6-7.2 3.3-13.5 10.1-17.9 6.1-3.9 13.5-5.6 21.2-5.6 16.8 0 31.9 10.7 31.4 23.5 0 13.5-14 24-31.9 24-9.6-.6-18.5-3.9-24.7-10zm39.8-17.5c-2.2-2.2-7.2-5-14-5-4.5 0-9 1.1-12.3 3.3-2.2 1.1-3.3 3.3-3.3 4.5 0 1.1 1.1 2.2 1.7 2.8 2.2 2.2 7.2 5 14 5 10.1 0 15.7-4.5 15.7-7.8-.7-.5-1.3-2.1-1.8-2.8z"/><path class="st0" d="M126.1 58.4c-3.9-3.9-6.7-9-6.1-14-.6-7.2 3.9-14 10.1-17.9 5.6-4.5 13.5-6.7 21.2-6.7 16.8 0 31.9 10.7 31.4 23.5 0 13.5-14 24-31.4 23.5-10.1 1.1-19.6-2.8-25.2-8.4zm39.2-17.9c-2.2-2.2-7.2-5-14-5-5 .6-9.6 1.7-12.3 3.3-2.2 2.2-3.3 3.3-3.9 5 0 1.1 1.1 2.2 1.7 2.8 2.2 2.2 7.2 5 14 5 10.1 0 15.7-4.5 15.7-7.8 1-1.1-.1-2.2-1.2-3.3z"/><path class="st1" d="M151.3 56.6c-11.7 0-21-6.4-20.5-13.7-.5-8.3 9.3-14.2 20.5-14.7 11.7 0 21 6.4 20.5 13.7.5 8.4-9.2 14.2-20.5 14.7"/><path class="st0" d="M108.3 65.6c-1.5-.9-2.1-1.8-2.1-3.1 0-2.5 3.1-4.4 7.3-4.4h73.6c4.1 0 7.3 1.8 7.3 4.4 0 2.5-3.1 4.4-7.3 4.4h-73.6c-2 0-3.6-.3-5.2-1.3zm63.1-50.1c3.2-3.2 4.1-7.6 1.9-9.5-1.9-2.1-6.2-1.4-9.5 1.9-3.2 3-4.1 7.3-1.9 9.5 1.9 2.2 6.3 1.4 9.5-1.9m-40.8-.4c3.2 3.2 7.6 4.1 9.5 1.9 2.1-2.1 1.4-6.5-1.9-9.5-3.2-3.2-7.6-4.1-9.5-1.9-2.2 2.1-1 6.5 1.9 9.5"/><path class="st2" d="M2.7 77.7c3.2 1.8 8.8 3.7 14.2 3.7 7.9 0 11.5-3.4 11.5-7.6 0-4.5-3.1-6.9-11.1-9.5C6.8 61.1 1.7 56 1.7 49.8c0-8.3 7.7-15.1 20.5-15.1 6 0 11.3 1.5 14.6 3.2l-2.7 6.8c-2.3-1.3-6.6-3-12.2-3-6.4 0-9.9 3.2-9.9 7 0 4.2 3.6 6.2 11.3 8.7 10.3 3.4 15.6 7.9 15.6 15.5 0 9-8.1 15.4-22.2 15.4-6.5.1-12.5-1.3-16.7-3.4l2.7-7.2zm38.8-27.9c0-5.3-.1-9.7-.4-13.9h8.1l.4 8.3h.3c2.8-4.9 7.6-9.5 16-9.5 7 0 12.2 4.2 14.4 10.3h.2c1.6-2.9 3.6-5.1 5.7-6.7 3.1-2.3 6.4-3.6 11.3-3.6 6.7 0 16.7 4.5 16.7 22.3v30.3h-9.1V58.2c0-9.9-3.6-15.8-11.1-15.8-5.3 0-9.4 3.9-11 8.5-.4 1.3-.7 3-.7 4.7v31.8h-9.1V56.5c0-8.2-3.6-14.1-10.6-14.1-5.8 0-10 4.7-11.5 9.3-.5 1.4-.7 3-.7 4.6v31h-9.1V49.8zm228.1 29.9l24.7-27.8c2.4-2.5 4.6-4.8 7.1-7.3v-.2h-29.6v-6.9h41.7l-.1 5.4L289 70.2c-2.3 2.6-4.5 5-7 7.4v.2h32v6.8h-44.4v-4.9z"/><path class="st1" d="M151.3 90.8c-11.7 0-21-6.4-20.5-13.7 0-7.8 9.3-14.2 20.5-13.7 11.7 0 21 6.4 20.5 13.7.5 7.3-8.7 13.7-20.5 13.7"/><path class="st0" d="M209.6 35.3c4.9 0 8.8 1.2 11.6 3.6 2.8 2.4 4.3 5.8 4.3 10 0 2.8-.7 5.4-1.8 7.6-1.2 2.2-2.8 3.9-4.6 5.1-1.8 1.2-4 2.3-6.6 3-4.3 1.3-9.2 2-14.8 2 .2 3.5 1.3 6.2 3.3 8.4s5 3.1 9 3.1 8-1.4 12.2-4.3l3.7 7.9c-1.3 1.2-3.5 2.4-6.6 3.6-3.1 1.2-6.6 1.8-10.6 1.8-7.9 0-13.8-2.2-17.5-6.6-3.7-4.4-5.5-10.4-5.5-18.1s2.1-14.1 6.3-19.3c4.1-5.2 10.1-7.8 17.6-7.8z"/><path class="st3" d="M205.2 57.6c2.4-.4 4.6-1.4 6.6-2.8 2.1-1.4 3-3.3 3-5.2 0-4-2-6-5.9-6-3.7 0-6.4 1.4-8.4 4.3s-3 6.4-3.3 10.4c3 0 5.6-.2 8-.7z"/><path class="st0" d="M250.5 35.3c4.9 0 8.8 1.2 11.6 3.6 2.8 2.4 4.3 5.8 4.3 10 0 2.8-.7 5.4-1.8 7.6-1.2 2.2-2.8 3.9-4.6 5.1-1.8 1.2-4 2.3-6.6 3-4.3 1.3-9.2 2-14.8 2 .2 3.5 1.3 6.2 3.3 8.4s5 3.1 9 3.1 8-1.4 12.2-4.3l3.7 7.9c-1.3 1.2-3.5 2.4-6.6 3.6-3.1 1.2-6.6 1.8-10.6 1.8-7.9 0-13.8-2.2-17.5-6.6-3.7-4.4-5.5-10.4-5.5-18.1s2.1-14.1 6.3-19.3c4-5.2 10-7.8 17.6-7.8z"/><path class="st3" d="M247.1 57.6c2.4-.4 4.6-1.4 6.6-2.8 2.1-1.4 3-3.3 3-5.2 0-4-2-6-5.9-6-3.7 0-6.4 1.4-8.4 4.3s-3 6.4-3.3 10.4c3 0 5.6-.2 8-.7z"/></svg>