<?xml version="1.0" encoding="utf-8"?>
<!-- Generator: Adobe Illustrator 22.0.0, SVG Export Plug-In . SVG Version: 6.00 Build 0)  -->
<svg version="1.1" id="Layer_1" xmlns="http://www.w3.org/2000/svg" xmlns:xlink="http://www.w3.org/1999/xlink" x="0px" y="0px"
	 viewBox="0 0 314 105" style="enable-background:new 0 0 314 105;" xml:space="preserve">
<style type="text/css">
	.st0{fill:#FFE100;}
	.st1{fill:#333545;}
	.st2{fill:#FFFFFF;}
</style>
<circle class="st0" cx="44.5" cy="54.2" r="40.1"/>
<g>
	<path class="st1" d="M26.8,81.4c-2.8-2.8-4.8-6.5-4.4-10.1c-0.4-5.2,2.4-9.8,7.3-12.9c4.4-2.8,9.8-4,15.3-4
		c12.1,0,23.1,7.7,22.7,17c0,9.8-10.1,17.4-23.1,17.4C37.7,88.1,31.3,85.8,26.8,81.4z M55.6,68.7c-1.6-1.6-5.2-3.6-10.1-3.6
		c-3.3,0-6.5,0.8-8.9,2.4c-1.6,0.8-2.4,2.4-2.4,3.3c0,0.8,0.8,1.6,1.2,2c1.6,1.6,5.2,3.6,10.1,3.6c7.3,0,11.4-3.3,11.4-5.6
		C56.4,70.4,55.9,69.2,55.6,68.7L55.6,68.7z"/>
</g>
<g>
	<path class="st1" d="M26.8,58.7c-2.8-2.8-4.8-6.5-4.4-10.1c-0.4-5.2,2.8-10.1,7.3-12.9c4-3.3,9.8-4.8,15.3-4.8
		c12.1,0,23.1,7.7,22.7,17c0,9.8-10.1,17.4-22.7,17C37.7,65.5,30.9,62.7,26.8,58.7z M55.1,45.7c-1.6-1.6-5.2-3.6-10.1-3.6
		c-3.6,0.4-6.9,1.2-8.9,2.4c-1.6,1.6-2.4,2.4-2.8,3.6c0,0.8,0.8,1.6,1.2,2c1.6,1.6,5.2,3.6,10.1,3.6c7.3,0,11.4-3.3,11.4-5.6
		C56.7,47.3,55.9,46.5,55.1,45.7z"/>
</g>
<g>
	<path class="st0" d="M45,57.4c-8.5,0-15.2-4.6-14.8-9.9c-0.4-6,6.7-10.3,14.8-10.6c8.5,0,15.2,4.6,14.8,9.9
		C60.2,52.8,53.2,57,45,57.4"/>
</g>
<g>
	<path class="st1" d="M13.9,63.9c-1.1-0.7-1.5-1.3-1.5-2.2c0-1.8,2.2-3.2,5.3-3.2h53.2c3,0,5.3,1.3,5.3,3.2c0,1.8-2.2,3.2-5.3,3.2
		H17.7C16.3,64.8,15.1,64.6,13.9,63.9z M59.6,27.6c2.3-2.3,3-5.5,1.4-6.9c-1.4-1.5-4.5-1-6.9,1.4c-2.3,2.2-3,5.3-1.4,6.9
		C54.1,30.6,57.2,30,59.6,27.6 M30.1,27.4c2.3,2.3,5.5,3,6.9,1.4c1.5-1.5,1-4.7-1.4-6.9c-2.3-2.3-5.5-3-6.9-1.4
		C27.1,22,28,25.2,30.1,27.4"/>
</g>
<path class="st0" d="M45,82.1c-8.5,0-15.2-4.6-14.8-9.9c0-5.6,6.7-10.3,14.8-9.9c8.5,0,15.2,4.6,14.8,9.9
	C60.2,77.4,53.6,82.1,45,82.1"/>
<g>
	<path class="st1" d="M105.9,78.6c-2.3,0-4.9-0.2-7.6-0.7c-2.7-0.5-5.5-1.2-8.4-2.1c0-0.2,0-0.4,0-0.5c0-0.1,0-0.3,0-0.5
		c0-1.6,0.3-2.8,0.9-3.8c0.6-1,1.5-1.5,2.8-1.5c0.6,0,1.4,0.1,2.2,0.3c0.9,0.2,1.8,0.4,2.9,0.6c1.1,0.2,2.3,0.5,3.6,0.6
		c1.3,0.2,2.8,0.3,4.3,0.3c3.3,0,5.6-0.6,7-1.8c1.4-1.2,2.1-2.7,2.1-4.5c0-0.9-0.2-1.7-0.5-2.3c-0.3-0.6-0.8-1.2-1.4-1.6
		c-0.6-0.5-1.4-0.8-2.3-1.2c-0.9-0.3-1.9-0.7-3-1l-5.9-1.6c-4.7-1.3-7.9-3.1-9.8-5.4C90.9,49.6,90,47,90,44c0-1.5,0.3-3,0.8-4.5
		c0.5-1.5,1.4-2.9,2.7-4.2c1.3-1.2,3-2.3,5.1-3.1c2.1-0.8,4.8-1.2,8.1-1.2c2.2,0,4.5,0.2,7,0.6c2.5,0.4,5.1,1.1,7.8,2.1v1
		c0,1.6-0.3,2.9-0.8,3.8c-0.5,0.9-1.4,1.4-2.7,1.4c-0.6,0-1.3-0.1-2-0.3c-0.7-0.2-1.6-0.3-2.5-0.5c-0.9-0.2-2-0.3-3.2-0.5
		c-1.2-0.2-2.5-0.2-4-0.2c-1.7,0-3.1,0.2-4.1,0.5c-1.1,0.3-2,0.7-2.6,1.3c-0.7,0.5-1.1,1.1-1.4,1.8c-0.3,0.6-0.4,1.3-0.4,2
		c0,1.6,0.5,2.8,1.6,3.6c1.1,0.8,3,1.6,5.8,2.4l6.3,1.8c8.3,2.2,12.5,6.5,12.5,13c0,2.1-0.3,4-1,5.7c-0.7,1.7-1.8,3.2-3.3,4.4
		c-1.5,1.2-3.3,2.2-5.6,2.9C111.8,78.3,109.1,78.6,105.9,78.6z"/>
	<path class="st1" d="M132.4,78.3c-0.8,0-1.5-0.1-2.1-0.3c-0.6-0.2-1.1-0.3-1.5-0.5l4.7-45.2c0.7-0.3,1.5-0.5,2.6-0.7
		c1.1-0.2,2-0.3,2.7-0.3c2.1,0,3.8,0.3,4.9,1c1.1,0.6,1.9,1.8,2.2,3.4l7.9,31.1l7.9-30.9c0.4-1.6,1.1-2.8,2.3-3.5
		c1.1-0.7,2.7-1.1,4.7-1.1c1,0,1.9,0.1,2.9,0.2c1,0.1,1.8,0.3,2.5,0.5l4.5,45.5c-0.5,0.2-1,0.4-1.7,0.5c-0.6,0.2-1.4,0.3-2.2,0.3
		c-1.1,0-2-0.2-2.7-0.6c-0.7-0.4-1.1-1.1-1.2-2.1l-3-36.7l-8.7,32.5c-0.4,1.3-1,2.3-2,2.8c-0.9,0.5-2.1,0.8-3.5,0.8
		c-0.7,0-1.5,0-2.3-0.1c-0.8-0.1-1.4-0.2-2-0.4l-9.8-35.5l-3.3,36.8c-0.1,1-0.5,1.7-1.2,2.1C134.2,78.1,133.4,78.3,132.4,78.3z"/>
	<path class="st1" d="M189.8,78c-1.8,0-2.9-0.3-3.4-1c-0.5-0.7-0.8-1.6-0.8-2.7v-39c0-1.1,0.2-2,0.8-2.7c0.5-0.7,1.6-1,3.4-1h11.8
		c3,0,5.5,0.3,7.6,0.9c2.1,0.6,3.9,1.4,5.2,2.5c1.4,1.1,2.3,2.3,3,3.8c0.6,1.5,0.9,3.1,0.9,4.9c0,2.4-0.7,4.6-2.1,6.4
		c-1.4,1.8-3.3,3.1-5.7,3.9c3.2,0.8,5.6,2.1,7.1,4.1c1.5,2,2.3,4.2,2.3,6.6c0,4.3-1.5,7.6-4.4,9.9c-3,2.3-7.5,3.4-13.7,3.4H189.8z
		 M193.5,50.9h7.9c1.7,0,3.2-0.2,4.3-0.5c1.2-0.3,2.1-0.8,2.8-1.4c0.7-0.6,1.2-1.3,1.5-2c0.3-0.8,0.5-1.6,0.5-2.5
		c0-3.9-3-5.9-8.9-5.9h-8V50.9z M193.5,70.9h7.6c3.7,0,6.4-0.5,8.1-1.5c1.7-1,2.6-2.8,2.6-5.2c0-0.9-0.1-1.7-0.4-2.5
		c-0.3-0.8-0.8-1.5-1.5-2.1c-0.7-0.6-1.8-1.1-3.1-1.5c-1.3-0.4-3.1-0.6-5.2-0.6h-8V70.9z"/>
</g>
<g>
	<path class="st1" d="M281.7,76.7c-0.1-0.3-0.2-0.8-0.3-1.4c-0.1-0.6-0.1-1.2-0.1-1.8c0-0.8,0.1-1.6,0.3-2.3
		c0.2-0.8,0.7-1.6,1.4-2.4l17.3-21.1h-15.7c-0.8,0-1.5-0.2-2.1-0.7c-0.5-0.5-0.8-1.4-0.8-2.7c0-0.6,0-1.2,0.1-1.7
		c0.1-0.6,0.2-1,0.3-1.4h27.8c0.1,0.3,0.2,0.8,0.3,1.4c0.1,0.6,0.1,1.1,0.1,1.7c0,0.7-0.1,1.4-0.3,2.2c-0.2,0.8-0.6,1.6-1.3,2.4
		l-17.5,21.3h19.1c0.2,0.7,0.4,1.7,0.4,3c0,1.3-0.3,2.2-0.8,2.7c-0.5,0.5-1.2,0.7-2.1,0.7H281.7z"/>
</g>
<path class="st1" d="M238.5,39.7c3.6,0,6.5,0.9,8.5,2.6c2.1,1.8,3.2,4.3,3.2,7.4c0,2.1-0.5,4-1.3,5.6c-0.9,1.6-2.1,2.9-3.4,3.8
	s-2.9,1.7-4.9,2.2c-3.2,1-6.8,1.5-10.9,1.5c0.1,2.6,1,4.6,2.4,6.2c1.5,1.6,3.7,2.3,6.6,2.3c2.9,0,5.9-1,9-3.2l2.7,5.8
	c-1,0.9-2.6,1.8-4.9,2.6c-2.3,0.9-4.9,1.3-7.8,1.3c-5.8,0-10.1-1.6-12.9-4.9c-2.7-3.2-4-7.6-4-13.3s1.5-10.4,4.6-14.2
	C228.6,41.6,233,39.7,238.5,39.7L238.5,39.7z"/>
<path class="st2" d="M235.3,56.1c1.8-0.3,3.4-1,4.9-2.1c1.5-1,2.2-2.4,2.2-3.8c0-2.9-1.5-4.4-4.3-4.4c-2.7,0-4.7,1-6.2,3.2
	s-2.2,4.7-2.4,7.6C231.6,56.6,233.5,56.5,235.3,56.1L235.3,56.1z"/>
<path class="st1" d="M268.6,39.7c3.6,0,6.5,0.9,8.5,2.6c2.1,1.8,3.2,4.3,3.2,7.4c0,2.1-0.5,4-1.3,5.6c-0.9,1.6-2.1,2.9-3.4,3.8
	c-1.3,0.9-2.9,1.7-4.9,2.2c-3.2,1-6.8,1.5-10.9,1.5c0.1,2.6,1,4.6,2.4,6.2c1.5,1.6,3.7,2.3,6.6,2.3c2.9,0,5.9-1,9-3.2l2.7,5.8
	c-1,0.9-2.6,1.8-4.9,2.6c-2.3,0.9-4.9,1.3-7.8,1.3c-5.8,0-10.1-1.6-12.9-4.9c-2.7-3.2-4-7.6-4-13.3s1.5-10.4,4.6-14.2
	C258.6,41.6,263,39.7,268.6,39.7L268.6,39.7z"/>
<path class="st2" d="M266.1,56.1c1.8-0.3,3.4-1,4.9-2.1c1.5-1,2.2-2.4,2.2-3.8c0-2.9-1.5-4.4-4.3-4.4c-2.7,0-4.7,1-6.2,3.2
	c-1.5,2.1-2.2,4.7-2.4,7.6C262.4,56.6,264.3,56.5,266.1,56.1z"/>
</svg>
