<svg id="Layer_1" xmlns="http://www.w3.org/2000/svg" xmlns:xlink="http://www.w3.org/1999/xlink" viewBox="0 0 314 105"><style>.st0{fill:#ffe100}.st1{enable-background:new}.st2{fill:#40508e}.st3{clip-path:url(#SVGID_2_)}.st4{clip-path:url(#SVGID_4_);fill:#edcc0c}.st5{fill:#eecd0b}.st5,.st6,.st7,.st8,.st9{clip-path:url(#SVGID_4_)}.st6{fill:#efce0b}.st7{fill:#f0cf0a}.st8{fill:#f1d00a}.st9{fill:#f2d109}.st10{fill:#f2d208}.st10,.st11,.st12,.st13,.st14{clip-path:url(#SVGID_4_)}.st11{fill:#f3d308}.st12{fill:#f4d407}.st13{fill:#f5d507}.st14{fill:#f6d706}.st15{fill:#f7d805}.st15,.st16,.st17,.st18,.st19{clip-path:url(#SVGID_4_)}.st16{fill:#f8d905}.st17{fill:#f9da04}.st18{fill:#fadb04}.st19{fill:#fbdc03}.st20{fill:#fbdd02}.st20,.st21,.st22,.st23,.st24{clip-path:url(#SVGID_4_)}.st21{fill:#fcde02}.st22{fill:#fddf01}.st23{fill:#fee001}.st24{fill:#ffe100}</style><path class="st0" d="M50.4 80.9H16.2c-5.5 0-10-4.5-10-10V36.7c0-5.5 4.5-10 10-10h34.1c5.5 0 10 4.5 10 10v34.1c.1 5.6-4.4 10.1-9.9 10.1z"/><g class="st1"><path class="st2" d="M103.3 71.5c-1.7 0-2.9-1.1-2.9-3.2V57c0-5.3-2-7.4-5.5-7.4-4.2 0-5.9 2.1-5.9 7.3v14.6h-1.5c-2.1 0-2.9-1.1-2.9-3.2V57c0-4.6-2.1-7.4-5.7-7.4-3.8 0-5.7 2.2-5.7 7.4v14.4h-1.4c-1.8 0-3-1.1-3-3.2V56.5c0-5.8 3.7-10.9 10.4-10.9 3.8 0 6.3 1.7 7.9 4.6 1.7-2.7 4.6-4.6 8-4.6 6.3 0 9.7 3.8 9.7 11.4v14.6h-1.5zm18.3.5c-5.2 0-9.7-3-9.7-7.6 0-5.5 4.3-8.5 11.9-8.5h3.4v-1.2c0-3.8-1.8-5.3-6-5.3-3.8 0-6.6 1.5-8.1 3.5h-.3v-2.1c0-2.4 3.1-5.4 8.8-5.4 6.4 0 9.9 3.4 9.9 9.6v8c0 5.2-2.8 9-9.9 9zm5.6-12.4h-3.5c-5.1 0-7.4 1.6-7.4 4.4 0 2.2 2.2 4 5.5 4 3.9 0 5.4-1.5 5.4-5.2v-3.2zM146.4 72c-4.3 0-7.7-2-7.7-5.1V65h.2c1.4 1.6 4.3 2.9 7.6 2.9 3.8 0 5.4-1.2 5.4-3.7 0-2.1-.9-3-6.7-4.3-4.8-1-7-2.6-7-6.4 0-4.1 3.8-8 10.1-8 3.8 0 7.4 1.7 7.4 4.8v1.9h-.2c-1.1-1.3-3.9-2.6-6.9-2.6-4.3 0-6 1.5-6 3.6 0 1.8 1 2.5 6.3 3.6 5 1.1 7.5 3.5 7.5 6.9 0 5.4-4.1 8.3-10 8.3zm37.3-.5c-2.3 0-3.2-.9-3.2-2.8v-12c0-5.1-2.1-7-6-7-3 0-6.4 2.4-6.4 7.2v14.6h-1.2c-2.1 0-3-.9-3-2.8V36h1.3c2 0 3.1.8 3.1 3.2V50c1.8-3.5 4.5-4.5 6.9-4.5 6 0 9.8 3.3 9.8 10.9v15h-1.3zm18 .5c-5.2 0-9.7-3-9.7-7.6 0-5.5 4.3-8.5 11.9-8.5h3.4v-1.2c0-3.8-1.8-5.3-6-5.3-3.8 0-6.6 1.5-8.1 3.5h-.3v-2.1c0-2.4 3.1-5.4 8.8-5.4 6.4 0 9.9 3.4 9.9 9.6v8c0 5.2-2.8 9-9.9 9zm5.6-12.4h-3.5c-5.1 0-7.4 1.6-7.4 4.4 0 2.2 2.2 4 5.5 4 3.9 0 5.4-1.5 5.4-5.2v-3.2zm25.1-8.2c-.8-.7-2.2-1.3-3.9-1.3-3.4 0-4.6 1.7-4.6 7.1v14.3H222c-1.6 0-2.5-1.2-2.5-2.9V56.9c0-7.1 3.4-10.8 8.3-10.8 3.5 0 4.8 1.5 4.8 3.2v2.1h-.2zm14 9.3h-6.3c.4 4.3 3.4 7.2 8.1 7.2 3.9 0 6.3-1.2 7.7-2.6h.2v1.9c0 2.7-2.9 4.8-8.6 4.8-7 0-11.9-5.4-11.9-12.7 0-8.2 5.2-13.7 11.9-13.7 5 0 9.6 3.8 9.6 8.8.1 4.5-2 6.3-10.7 6.3zm.7-11.3c-4.3 0-6.8 3.5-7 6.8l-.1 1.1 5.8-.1c6.1-.1 7.2-.7 7.2-2.6 0-2.7-1.9-5.2-5.9-5.2zM274 60.7h-6.3c.4 4.3 3.4 7.2 8.1 7.2 3.9 0 6.3-1.2 7.7-2.6h.2v1.9c0 2.7-2.9 4.8-8.6 4.8-7 0-11.9-5.4-11.9-12.7 0-8.2 5.2-13.7 11.9-13.7 5 0 9.6 3.8 9.6 8.8.1 4.5-2 6.3-10.7 6.3zm.7-11.3c-4.3 0-6.8 3.5-7 6.8l-.1 1.1 5.8-.1c6.1-.1 7.2-.7 7.2-2.6 0-2.7-1.9-5.2-5.9-5.2zM300.8 72c-5.4 0-10-2.9-10-6.7v-2.1h.3c2.4 3.1 5.7 4.5 10 4.5 4.6 0 7.3-1.8 7.3-5.8 0-3.8-3-5.9-9-5.9-1.7 0-2.3-.8-2.3-2.2v-1.3c8.4 0 10.9-1.5 10.9-5.7 0-3.6-2.6-5.6-7.8-5.6-4.9 0-7.8 2.1-9.1 4.5h-.3v-2c0-2.7 3.6-6.8 10.2-6.8 7.4 0 11.6 3.9 11.6 9.2 0 4.8-3 6.9-7.1 7.7 4.2.8 7.4 3.9 7.4 7.4.1 6.5-3.6 10.8-12.1 10.8z"/></g><defs><path id="SVGID_1_" d="M46.2 80.9H12.1c-5.5 0-10-4.5-10-10V36.7c0-5.5 4.5-10 10-10h34.1c5.5 0 10 4.5 10 10v34.1c0 5.6-4.5 10.1-10 10.1z"/></defs><clipPath id="SVGID_2_"><use xlink:href="#SVGID_1_" overflow="visible"/></clipPath><g class="st3"><defs><path id="SVGID_3_" d="M35.1 80.9H7.4c-11 0-20-9-20-20V46.7c0-11 9-20 20-20h27.7c11 0 20 9 20 20v14.1c0 11.1-9 20.1-20 20.1z"/></defs><clipPath id="SVGID_4_"><use xlink:href="#SVGID_3_" overflow="visible"/></clipPath><path class="st4" d="M-12.6 69.2L-.8 80.9h-11.8z"/><path class="st4" d="M-12.6 64.5L3.8 80.9H-.8l-11.8-11.7z"/><path class="st5" d="M-12.6 59.8L8.5 80.9H3.8l-16.4-16.4z"/><path class="st6" d="M-12.6 55.1l25.8 25.8H8.5l-21.1-21.1z"/><path class="st7" d="M-12.6 50.4l30.5 30.5h-4.7l-25.8-25.8z"/><path class="st8" d="M-12.6 45.7l35.2 35.2h-4.7l-30.5-30.5z"/><path class="st9" d="M-12.6 41l39.9 39.9h-4.7l-35.2-35.2z"/><path class="st10" d="M-12.6 36.4L32 80.9h-4.7L-12.6 41z"/><path class="st11" d="M-12.6 32.9l.6-.6 48.6 48.6H32l-44.6-44.5z"/><path class="st12" d="M-12 32.3l2.3-2.4 51 51h-4.7z"/><path class="st13" d="M-9.7 29.9l2.4-2.3L46 80.9h-4.7z"/><path class="st14" d="M-7.3 27.6l.9-.9h2.9L49.8 80l-.9.9H46z"/><path class="st15" d="M1.2 26.7l51 51-2.4 2.3-53.3-53.3z"/><path class="st16" d="M5.9 26.7l48.6 48.6-2.3 2.4-51-51z"/><path class="st17" d="M10.5 26.7l44.6 44.5v3.5l-.6.6L5.9 26.7z"/><path class="st18" d="M15.2 26.7l39.9 39.9v4.6L10.5 26.7z"/><path class="st19" d="M19.9 26.7l35.2 35.2v4.7L15.2 26.7z"/><path class="st20" d="M24.6 26.7l30.5 30.5v4.7L19.9 26.7z"/><path class="st21" d="M29.3 26.7l25.8 25.8v4.7L24.6 26.7z"/><path class="st22" d="M34 26.7l21.1 21.1v4.7L29.3 26.7z"/><path class="st23" d="M38.7 26.7l16.4 16.4v4.7L34 26.7z"/><path class="st24" d="M43.3 26.7l11.8 11.8v4.6L38.7 26.7zm11.8 11.8L43.3 26.7h11.8z"/></g><g class="st1"><path class="st2" d="M51 51c0 11.6-6.1 18.7-15.5 18.7-4.1 0-7.6-1.4-10.4-3.7-1.8 6.4-6 12.2-13.8 12.5-3.2 0-6.7-.3-6.7-4.5v-2.5l5.2-.1c8.6-.2 9.8-5.4 9.8-12.4 0-2.2-.3-4.6-.3-6.9 0-9.3 5.1-17.8 16.1-18.3C44.6 33.7 51 40.6 51 51zm-6.9 1.3c0-7.6-3.3-11.6-9.3-11.6-5.1 0-8.4 4-8.4 10.5 0 7.1 3.5 11.7 9.7 11.7 5.1.1 8-4.4 8-10.6z"/></g></svg>