<svg id="Layer_1" xmlns="http://www.w3.org/2000/svg" viewBox="0 0 314 105"><style>.st0{fill:#333545}.st1{fill:#ffe100}</style><path class="st0" d="M22.5 49.4c-1.4-.5-3.2-.8-5.2-.8s-3.7.5-4.9 1.4c-1.2.9-1.8 2.1-1.8 3.4 0 1.3.2 2.4.7 3.1.5.8 1.2 1.4 2.1 1.9 1.5.8 3.3 1.5 5.4 2 2.1.6 3.7 1 4.7 1.4 1 .3 2.3.9 3.8 1.7 1.5.8 2.7 1.6 3.5 2.5 2.1 2.2 3.1 5.1 3.1 8.5 0 4.5-1.6 8-4.9 10.6-3.3 2.6-7.4 3.8-12.5 3.8-7.3 0-12.8-.9-16.6-2.8V73.7l8.1-.6v4.3c0 2.6 2.5 4 7.6 4s7.6-1.8 7.6-5.5c0-1.3-.4-2.4-1.3-3.2-.9-.8-1.7-1.4-2.6-1.7-.8-.3-1.8-.6-3-.9-1.2-.3-2.3-.6-3.4-.9-1.1-.3-2.3-.7-3.6-1.2-1.3-.5-2.7-1.2-4.3-2.2-3.1-2-4.6-5.3-4.6-9.9 0-4.6 1.6-8.2 5-10.8 3.3-2.5 7.5-3.8 12.5-3.8s10 1.2 14.9 3.6v10.8l-8.1.6v-3.8c-.1-1.5-.8-2.5-2.2-3.1zm16.5.5v-7.3h15.2v5.8c3.4-4.8 8-7.2 13.8-7.2s9.8 2.4 11.8 7.2c3.4-4.8 7.9-7.2 13.7-7.2 4.3 0 7.7 1.3 10 3.9s3.5 6.5 3.5 11.7v23.5l5.1.3v7.2H90.7V81l3-.3c.9-.1 1.5-.4 1.9-.8.4-.4.6-1.1.7-2.1V59.2c0-3.3-.4-5.7-1.1-7.3-.8-1.6-2.5-2.4-5.3-2.4s-4.9.8-6.3 2.5c-1.5 1.7-2.2 3.9-2.2 6.8v21.6l4.9.3v7.2H65.1V81l3-.3c.9-.1 1.6-.4 2-.8.4-.4.6-1.1.6-2.2V59.2c0-3.3-.4-5.7-1.1-7.3-.8-1.6-2.5-2.4-5.3-2.4s-4.9.9-6.3 2.6c-1.4 1.7-2.2 3.9-2.2 6.5v21.8l4.9.3v7.2H39.3V81l3-.3c.9-.1 1.6-.4 2-.8.4-.4.6-1.1.6-2.2h.1V52.9c0-1-.2-1.7-.5-2.1-.3-.4-.9-.6-1.8-.7l-3.7-.2zm173.2-8.7c4.5 0 8.1 1.1 10.7 3.3 2.6 2.2 4 5.3 4 9.2 0 2.6-.6 5-1.7 7s-2.6 3.6-4.2 4.7c-1.7 1.1-3.7 2.1-6.1 2.8-4 1.2-8.5 1.8-13.6 1.8.2 3.2 1.2 5.7 3 7.7s4.6 2.9 8.3 2.9c3.7 0 7.4-1.3 11.2-4l3.4 7.3c-1.2 1.1-3.2 2.2-6.1 3.3-2.9 1.1-6.1 1.7-9.8 1.7-7.3 0-12.7-2-16.1-6.1s-5.1-9.6-5.1-16.7 1.9-13 5.8-17.8c3.8-4.7 9.3-7.1 16.3-7.1zm-4.1 20.6c2.2-.4 4.2-1.3 6.1-2.6 1.9-1.3 2.8-3 2.8-4.8 0-3.7-1.8-5.5-5.4-5.5-3.4 0-5.9 1.3-7.7 4-1.8 2.7-2.8 5.9-3 9.6 2.6-.1 5-.3 7.2-.7zm47.7-20.6c4.5 0 8.1 1.1 10.7 3.3 2.6 2.2 4 5.3 4 9.2 0 2.6-.6 5-1.7 7s-2.6 3.6-4.2 4.7c-1.7 1.1-3.7 2.1-6.1 2.8-4 1.2-8.5 1.8-13.6 1.8.2 3.2 1.2 5.7 3 7.7s4.6 2.9 8.3 2.9c3.7 0 7.4-1.3 11.2-4l3.4 7.3c-1.2 1.1-3.2 2.2-6.1 3.3-2.9 1.1-6.1 1.7-9.8 1.7-7.3 0-12.7-2-16.1-6.1s-5.1-9.6-5.1-16.7 1.9-13 5.8-17.8c3.8-4.7 9.3-7.1 16.3-7.1zm-4.1 20.6c2.2-.4 4.2-1.3 6.1-2.6 1.9-1.3 2.8-3 2.8-4.8 0-3.7-1.8-5.5-5.4-5.5-3.4 0-5.9 1.3-7.7 4-1.8 2.7-2.8 5.9-3 9.6 2.6-.1 5-.3 7.2-.7zm62.4 26h-36.7V81l23.1-30.4h-11.3c-1.3 0-2.1.2-2.4.7-.3.5-.5 1.3-.5 2.3v3.2l-8.5-.6V42.6h35.8v6.1l-23.4 31.1H303c1.7 0 2.6-1 2.6-3.1v-3.8l8.5.6v14.3zm-190.7 6.5c-4.2-4.2-7.2-9.7-6.6-15.1-.6-7.8 3.6-14.5 10.9-19.3 6.6-4.2 14.5-6 22.9-6 18.1 0 34.4 11.5 33.8 25.3 0 14.5-15.1 25.9-34.4 25.9-10.3-.6-19.9-4.2-26.6-10.8zm42.9-18.8c-2.4-2.4-7.8-5.4-15.1-5.4-4.8 0-9.7 1.2-13.3 3.6-2.4 1.2-3.6 3.6-3.6 4.8 0 1.2 1.2 2.4 1.8 3 2.4 2.4 7.8 5.4 15.1 5.4 10.9 0 16.9-4.8 16.9-8.4-.6-.5-1.2-2.3-1.8-3z"/><path class="st0" d="M123.4 60.5c-4.2-4.2-7.2-9.7-6.6-15.1-.6-7.8 4.2-15.1 10.9-19.3 6-4.8 14.5-7.2 22.9-7.2 18.1 0 34.4 11.5 33.8 25.3 0 14.5-15.1 25.9-33.8 25.3-10.9 1.2-21.1-3-27.2-9zm42.3-19.3c-2.4-2.4-7.8-5.4-15.1-5.4-5.4.6-10.3 1.8-13.3 3.6-2.4 2.4-3.6 3.6-4.2 5.4 0 1.2 1.2 2.4 1.8 3 2.4 2.4 7.8 5.4 15.1 5.4 10.9 0 16.9-4.8 16.9-8.4 1.2-1.2 0-2.4-1.2-3.6z"/><path class="st1" d="M150.6 93.5c-11.4 0-20.4-6.2-19.9-13.3 0-7.6 9-13.8 19.9-13.3 11.4 0 20.4 6.2 19.9 13.3.5 7.1-8.5 13.3-19.9 13.3m0-36c-11.4 0-20.5-6.2-20-13.4-.5-8.1 9.1-13.8 20-14.3 11.4 0 20.5 6.2 20 13.4.5 8.1-9 13.8-20 14.3"/><path class="st0" d="M99 68c-1.8-1.8-2.4-3.6-2.4-6 0-4.8 3.6-8.5 8.5-8.5h85.8c4.8 0 8.5 3.6 8.5 8.5 0 4.8-3.6 8.5-8.5 8.5h-85.8c-2.4 0-4.2-.6-6.1-2.5zm73.3-55.7c3.5-3.5 4.4-8.2 2-10.2-2-2.3-6.7-1.5-10.2 2-3.5 3.2-4.4 7.9-2 10.2 2 2.4 6.7 1.5 10.2-2m-44-.5c3.5 3.5 8.2 4.4 10.2 2 2.3-2.3 1.5-7-2-10.2-3.5-3.5-8.2-4.4-10.2-2-2.4 2.3-1.2 7 2 10.2"/></svg>