<svg id="Layer_1" xmlns="http://www.w3.org/2000/svg" xmlns:xlink="http://www.w3.org/1999/xlink" viewBox="0 0 314 105"><style>.st0{fill:#ffe100}.st1{clip-path:url(#SVGID_2_)}.st2{clip-path:url(#SVGID_4_);fill:#edcc0c}.st3{fill:#eecd0b}.st3,.st4,.st5,.st6,.st7{clip-path:url(#SVGID_4_)}.st4{fill:#efce0b}.st5{fill:#f0cf0a}.st6{fill:#f1d00a}.st7{fill:#f2d109}.st10,.st11,.st12,.st8,.st9{clip-path:url(#SVGID_4_)}.st8{fill:#f2d208}.st9{fill:#f3d308}.st10{fill:#f4d407}.st11{fill:#f5d507}.st12{fill:#f6d706}.st13{fill:#f7d805}.st13,.st14,.st15,.st16,.st17{clip-path:url(#SVGID_4_)}.st14{fill:#f8d905}.st15{fill:#f9da04}.st16{fill:#fadb04}.st17{fill:#fbdc03}.st18{fill:#fbdd02}.st18,.st19,.st20,.st21,.st22{clip-path:url(#SVGID_4_)}.st19{fill:#fcde02}.st20{fill:#fddf01}.st21{fill:#fee001}.st22{fill:#ffe100}.st23{enable-background:new}.st24{fill:#40508e}</style><path class="st0" d="M301.4 80.9h-34.2c-5.5 0-10-4.5-10-10V36.7c0-5.5 4.5-10 10-10h34.1c5.5 0 10 4.5 10 10v34.1c.1 5.6-4.4 10.1-9.9 10.1z"/><defs><path id="SVGID_1_" d="M297.2 80.9h-34.1c-5.5 0-10-4.5-10-10V36.7c0-5.5 4.5-10 10-10h34.1c5.5 0 10 4.5 10 10v34.1c0 5.6-4.5 10.1-10 10.1z"/></defs><clipPath id="SVGID_2_"><use xlink:href="#SVGID_1_" overflow="visible"/></clipPath><g class="st1"><defs><path id="SVGID_3_" d="M286.1 80.9h-27.7c-11 0-20-9-20-20V46.7c0-11 9-20 20-20h27.7c11 0 20 9 20 20v14.1c0 11.1-9 20.1-20 20.1z"/></defs><clipPath id="SVGID_4_"><use xlink:href="#SVGID_3_" overflow="visible"/></clipPath><path class="st2" d="M238.4 69.2l11.7 11.7h-11.7zm0-4.7l16.4 16.4h-4.7l-11.7-11.7z"/><path class="st3" d="M238.4 59.8l21.1 21.1h-4.7l-16.4-16.4z"/><path class="st4" d="M238.4 55.1l25.8 25.8h-4.7l-21.1-21.1z"/><path class="st5" d="M238.4 50.4l30.5 30.5h-4.7l-25.8-25.8z"/><path class="st6" d="M238.4 45.7l35.2 35.2h-4.7l-30.5-30.5z"/><path class="st7" d="M238.4 41l39.9 39.9h-4.7l-35.2-35.2z"/><path class="st8" d="M238.4 36.4L283 80.9h-4.7L238.4 41z"/><path class="st9" d="M238.4 32.9l.6-.6 48.6 48.6H283l-44.6-44.5z"/><path class="st10" d="M239 32.3l2.3-2.4 51 51h-4.7z"/><path class="st11" d="M241.3 29.9l2.4-2.3L297 80.9h-4.7z"/><path class="st12" d="M243.7 27.6l.9-.9h2.9L300.8 80l-.9.9H297z"/><path class="st13" d="M252.2 26.7l51 51-2.4 2.3-53.3-53.3z"/><path class="st14" d="M256.9 26.7l48.6 48.6-2.3 2.4-51-51z"/><path class="st15" d="M261.5 26.7l44.6 44.5v3.5l-.6.6-48.6-48.6z"/><path class="st16" d="M266.2 26.7l39.9 39.9v4.6l-44.6-44.5z"/><path class="st17" d="M270.9 26.7l35.2 35.2v4.7l-39.9-39.9z"/><path class="st18" d="M275.6 26.7l30.5 30.5v4.7l-35.2-35.2z"/><path class="st19" d="M280.3 26.7l25.8 25.8v4.7l-30.5-30.5z"/><path class="st20" d="M285 26.7l21.1 21.1v4.7l-25.8-25.8z"/><path class="st21" d="M289.7 26.7l16.4 16.4v4.7L285 26.7z"/><path class="st22" d="M294.4 26.7l11.7 11.8v4.6l-16.4-16.4zm11.7 11.8l-11.7-11.8h11.7z"/></g><g class="st23"><path class="st24" d="M302 51c0 11.6-6.1 18.7-15.5 18.7-4.1 0-7.6-1.4-10.4-3.7-1.8 6.4-6 12.2-13.8 12.5-3.2 0-6.7-.3-6.7-4.5v-2.5l5.2-.1c8.6-.2 9.8-5.4 9.8-12.4 0-2.2-.3-4.6-.3-6.9 0-9.3 5.1-17.8 16.1-18.3 9.2-.1 15.6 6.8 15.6 17.2zm-6.9 1.3c0-7.6-3.3-11.6-9.3-11.6-5.1 0-8.4 4-8.4 10.5 0 7.1 3.5 11.7 9.7 11.7 5.1.1 8-4.4 8-10.6z"/></g><path class="st24" d="M123 76.1c-2.3 1.5-4.9 2.2-7.7 2.2-3.1 0-5.7-1-7.6-3-1.8-1.8-2.7-4.1-2.7-6.9 0-1.9.5-3.6 1.5-5.1s2.6-2.8 4.9-4.1c-1.5-.9-3.4-2.7-5.6-5.4-.3-.3-.5-.6-.7-.8v-2.3c1.2-1.8 2.7-3.2 4.6-4.3 1.9-1.1 3.7-1.6 5.7-1.6 1.9 0 3.8.5 5.7 1.6 1.9 1.1 3.4 2.5 4.6 4.3V53c-1.7 2-3.7 3.7-6.1 5.2.9.1 1.7.2 2.5.2h8.7v4.8h-11.6c-1.5 0-2.8-.3-4-1-1.9.9-3.3 1.8-4.1 2.8-.8 1-1.2 2.1-1.2 3.4 0 1.5.5 2.7 1.6 3.6 1.1.9 2.5 1.4 4.3 1.4 2.6 0 5.1-.7 7.4-2.2v4.9zm-7.7-19.5c2-1.6 3.5-3.2 4.4-4.8-1.6-1.5-3.1-2.2-4.5-2.2s-2.8.7-4.3 2.2c1.1 1.8 2.6 3.4 4.4 4.8z"/><path class="st24" d="M130.5 72.2c-.8 0-1.4-.2-1.9-.7-.5-.5-.7-1.1-.7-2 0-1.7.9-2.6 2.6-2.6.8 0 1.4.2 1.9.7.5.5.7 1.1.7 1.9 0 1.8-.9 2.7-2.6 2.7zm-2.2-8.9v-4.8h3.6c1 0 1.7-.2 2.2-.7.4-.4.6-1.2.6-2.2v-7.4l5-2.6v10.3c0 2.4-.7 4.3-2.2 5.7-1.3 1.2-3 1.8-5.1 1.8h-4.1zm8.3 8.9c-.8 0-1.4-.2-1.9-.7-.5-.5-.7-1.1-.7-2 0-1.7.9-2.6 2.6-2.6.8 0 1.4.2 1.9.7.5.5.7 1.1.7 1.9 0 1.8-.8 2.7-2.6 2.7zm20.2-11.4c0 3.1-.9 5.6-2.6 7.5-1.6 1.8-3.7 2.7-6.2 2.7-1.7 0-3.3-.4-4.9-1.3v-4.4c1.4.8 2.7 1.2 4.1 1.2 1.5 0 2.6-.5 3.4-1.4.8-.9 1.2-2.3 1.2-3.9v-13l5-2.7v15.3zm14.5 2.5c-2.4 0-4.3-.8-5.6-2.3-1.1-1.3-1.7-3.1-1.7-5.2V40.2l5-2.6v18.1c0 1 .2 1.8.6 2.2.4.4 1.1.7 2.2.7h3.6v4.8h-4.1z"/><path class="st24" d="M173 63.3v-4.8h7v4.8h-7z"/><path class="st24" d="M177.6 63.3v-4.8h4.2c1 0 1.7-.2 2.2-.7.4-.4.7-1.2.7-2.2v-5.3l5-2.6v7.9c0 1 .2 1.8.6 2.2s1.1.7 2.2.7h2.7c1 0 1.7-.2 2.2-.7s.6-1.2.6-2.2v-6.3l5-2.7v9c0 1 .2 1.8.7 2.2.4.4 1.2.7 2.2.7h2.7c1 0 1.7-.2 2.2-.7.4-.4.6-1.2.6-2.2v-7.4l5-2.6V55c0 1.3.3 2.2.8 2.7s1.4.8 2.6.8h3.7v4.8h-4c-2.2 0-4-.6-5.4-1.9-1.2 1.3-2.8 1.9-4.8 1.9h-4c-2 0-3.6-.6-4.8-1.8-1.1 1.1-2.7 1.7-4.6 1.8h-4c-2 0-3.6-.6-4.8-1.8-1.3 1.2-2.9 1.8-4.8 1.8h-4.7zM197.3 42c-.8 0-1.4-.2-1.9-.7-.5-.5-.7-1.1-.7-2 0-.8.2-1.4.7-1.9.5-.5 1.1-.7 1.9-.7.8 0 1.4.2 1.9.7.5.5.7 1.1.7 1.9 0 1.8-.8 2.7-2.6 2.7zm3.1-5.8c-1.6 0-2.4-.8-2.4-2.4 0-1.6.8-2.4 2.4-2.4 1.6 0 2.4.8 2.4 2.4-.1 1.5-.9 2.4-2.4 2.4zm3.1 5.8c-.8 0-1.4-.2-1.9-.7-.5-.5-.7-1.1-.7-2 0-.8.2-1.4.7-1.9.5-.5 1.1-.7 1.9-.7.8 0 1.4.2 1.9.7.5.5.7 1.1.7 1.9 0 1.8-.9 2.7-2.6 2.7z"/><path class="st24" d="M227.6 52.3c0-2.4.7-4.3 2.2-5.6 1.3-1.2 3-1.8 5-1.8 2.6 0 4.7 1 6.2 2.9 1.3 1.6 1.9 3.7 1.9 6.3 0 3-.8 5.3-2.4 7-1.4 1.5-3.2 2.2-5.4 2.2-2.1 0-3.9-.5-5.2-1.4-1.3.9-2.8 1.4-4.6 1.4h-4.1v-4.8h3.6c1 0 1.7-.2 2.2-.7s.6-1.2.6-2.2v-3.3zm5 3.9c0 1.5.8 2.2 2.4 2.2 2 0 3-1.5 3-4.6 0-2.9-1-4.4-3.1-4.4-1.5 0-2.2.9-2.2 2.6v4.2z"/></svg>